# xmcd 
#
# Track frame offsets:
# 150
# 11072
# 24173
# 36658
# 48264
# 61949
# 75002
# 85436
# 96616
# 108041
# 116756
# 129582
# 140901
# 150991
# 163388
# 174285
# 184609
# 194023
# 205170
# 212161
# 224051
# 235088
# 245688
# 256279
# 267816
# 277943
# 289925
# 299654
# 311932
#
# Disc length: 4280 seconds
#
# Revision: 0
# Processed by: cddbd v1.5.1PL2 Copyright (c) Steve Scherf et al.
# Submitted via: GrayWolf CD JukeBox 2 02.00.06
#
DISCID=ba10b61d
DTITLE=Homer and Jethro - Best of Homer and Jethro
DYEAR=1900
DGENRE=
TTITLE0=At the Flop ( At the Hop)
TTITLE1=Baby it's Cold Outside (w/June Carter)
TTITLE2=Cold Cold Heart #2
TTITLE3=Daddy Played First Bass ( Daddy Sang Bass )
TTITLE4=El Paso
TTITLE5=Freeda on the Freeway
TTITLE6=Hart Brake Motel ( Heart Break Hotel )
TTITLE7=He'll Have to Go
TTITLE8=Hernando's Hideaway
TTITLE9=Houn' Dawg (Hound Dog)
TTITLE10=How Much is that Dog in the Window
TTITLE11=I Want to Hold your Hand
TTITLE12=I'm Movin On
TTITLE13=Jam Bowl Liar
TTITLE14=Let Me Go Blubber ( Let Me Go Lover)
TTITLE15=Love and Marriage
TTITLE16=Mister Sandman
TTITLE17=Oh Lonesome Me
TTITLE18=On Top Forty
TTITLE19=Pore Ol' Koo-Liger ( Kaw-liga )
TTITLE20=Screen Door
TTITLE21=Setting The Woods On Fire
TTITLE22=She Loves You
TTITLE23=Sink The Bismark
TTITLE24=Sixteen Tons
TTITLE25=The Battle of Kookamonga
TTITLE26=Two Tone Shoes ( Blue Suede Shoes)
TTITLE27=Waterloo
TTITLE28=Yaller Rose of texas ( Yellow Rose of Texas)
EXTD=
EXTT0=
EXTT1=
EXTT2=
EXTT3=
EXTT4=
EXTT5=
EXTT6=
EXTT7=
EXTT8=
EXTT9=
EXTT10=
EXTT11=
EXTT12=
EXTT13=
EXTT14=
EXTT15=
EXTT16=
EXTT17=
EXTT18=
EXTT19=
EXTT20=
EXTT21=
EXTT22=
EXTT23=
EXTT24=
EXTT25=
EXTT26=
EXTT27=
EXTT28=
PLAYORDER=
